# xmcd
#
# Track frame offsets: 
#        150
#        22226
#        41304
#        72893
#        92013
#        114063
#        139108
#        157315
#        176785
#        195262
#        214797
#        236860
#
# Disc length: 3419 seconds
#
# Revision: 1
# Processed by: cddbd v1.5.2PL0 Copyright (c) Steve Scherf et al.
# Submitted via: ExactAudioCopyFreeDBPlugin 1.0
#
DISCID=a50d590c
DTITLE=Bobby Rush - Porcupine Meat
DYEAR=2016
DGENRE=Blues
TTITLE0=I Don't Want Nobody Hanging Around
TTITLE1=Porcupine Meat
TTITLE2=Got Me Accused
TTITLE3=Snake in the Grass
TTITLE4=Funk O' De Funk
TTITLE5=Me, Myself and I
TTITLE6=Catfish Stew
TTITLE7=It's Your Move
TTITLE8=Nighttime Gardener
TTITLE9=I Think Your Dress is Too Short
TTITLE10=Standing on Shaky Ground
TTITLE11=I'm Tired (Tangle Eye Mix)
EXTD=
EXTT0=
EXTT1=
EXTT2=
EXTT3=
EXTT4=
EXTT5=
EXTT6=
EXTT7=
EXTT8=
EXTT9=
EXTT10=
EXTT11=
PLAYORDER=
